<svg width="26" height="26" viewBox="0 0 26 26" fill="none" xmlns="http://www.w3.org/2000/svg">
<path d="M10.931 11.6852C11.3647 11.6852 11.7887 11.5566 12.1493 11.3156C12.5099 11.0747 12.791 10.7322 12.957 10.3315C13.123 9.93075 13.1664 9.48982 13.0818 9.06443C12.9972 8.63905 12.7883 8.2483 12.4816 7.94161C12.1749 7.63493 11.7842 7.42607 11.3588 7.34145C10.9334 7.25684 10.4925 7.30027 10.0918 7.46625C9.69107 7.63222 9.34858 7.9133 9.10761 8.27392C8.86665 8.63455 8.73804 9.05853 8.73804 9.49225C8.7387 10.0737 8.96995 10.6311 9.38106 11.0422C9.79217 11.4533 10.3496 11.6845 10.931 11.6852ZM10.931 8.11182C11.204 8.11182 11.4709 8.19278 11.6979 8.34446C11.9249 8.49615 12.1019 8.71174 12.2063 8.96398C12.3108 9.21623 12.3382 9.49379 12.2849 9.76157C12.2316 10.0293 12.1002 10.2753 11.9071 10.4684C11.714 10.6614 11.4681 10.7929 11.2003 10.8462C10.9325 10.8994 10.6549 10.8721 10.4027 10.7676C10.1505 10.6631 9.93487 10.4862 9.78318 10.2592C9.6315 10.0322 9.55054 9.76528 9.55054 9.49225C9.55095 9.12627 9.69653 8.77539 9.95532 8.5166C10.2141 8.25781 10.565 8.11223 10.931 8.11182Z" fill="white"/>
<path d="M23.0547 17.1641H21.2773V15.3867C21.2773 15.279 21.2345 15.1756 21.1584 15.0995C21.0822 15.0233 20.9788 14.9805 20.8711 14.9805C20.7633 14.9805 20.66 15.0233 20.5838 15.0995C20.5076 15.1756 20.4648 15.279 20.4648 15.3867V17.1641H18.7383C18.6305 17.1641 18.5272 17.2069 18.451 17.2831C18.3748 17.3592 18.332 17.4626 18.332 17.5703C18.332 17.6781 18.3748 17.7814 18.451 17.8576C18.5272 17.9338 18.6305 17.9766 18.7383 17.9766H20.4648V19.7031C20.4648 19.8109 20.5076 19.9142 20.5838 19.9904C20.66 20.0666 20.7633 20.1094 20.8711 20.1094C20.9788 20.1094 21.0822 20.0666 21.1584 19.9904C21.2345 19.9142 21.2773 19.8109 21.2773 19.7031V17.9766H23.0547C23.1624 17.9766 23.2658 17.9338 23.3419 17.8576C23.4181 17.7814 23.4609 17.6781 23.4609 17.5703C23.4609 17.4626 23.4181 17.3592 23.3419 17.2831C23.2658 17.2069 23.1624 17.1641 23.0547 17.1641Z" fill="white"/>
<path d="M23.9688 13.8698V6.18131C23.9688 4.83723 22.8622 3.75782 21.5181 3.75782H2.78043C2.46183 3.75685 2.14619 3.81886 1.85163 3.94029C1.55708 4.06172 1.28944 4.24017 1.06408 4.46539C0.838732 4.69061 0.660118 4.95814 0.53851 5.25262C0.416901 5.5471 0.354698 5.86271 0.355476 6.18131V18.4249C0.355476 19.7692 1.43641 20.8711 2.78043 20.8711H17.552C18.2168 21.535 19.0635 21.9869 19.9851 22.1699C20.9066 22.3528 21.8617 22.2585 22.7297 21.8989C23.5977 21.5393 24.3397 20.9305 24.8619 20.1495C25.3841 19.3684 25.6631 18.4501 25.6636 17.5106C25.6636 16.0512 24.9844 14.7415 23.9688 13.8698ZM2.78043 4.57032H21.5181C22.4141 4.57032 23.1563 5.28527 23.1563 6.18131V13.3199C22.4672 12.9511 21.6974 12.7589 20.9158 12.7605C20.7384 12.7606 20.561 12.7704 20.3847 12.79L16.9813 10.3803C16.9034 10.3251 16.8086 10.2991 16.7135 10.3068C16.6183 10.3144 16.5289 10.3552 16.4608 10.422L11.874 14.9297L6.54317 12.3317C6.48434 12.3025 6.41916 12.2885 6.35353 12.2909C6.28791 12.2933 6.22393 12.3121 6.16739 12.3455L1.16798 15.2488V6.18131C1.16708 5.96938 1.20819 5.75937 1.28892 5.56341C1.36966 5.36746 1.48842 5.18944 1.63835 5.03965C1.78828 4.88986 1.9664 4.77126 2.16243 4.69071C2.35846 4.61015 2.5685 4.56924 2.78043 4.57032ZM1.16798 18.4249V16.1881L6.38783 13.1569L11.262 15.5383L6.66408 20.0586H2.78043C2.35001 20.0557 1.93838 19.8819 1.63601 19.5756C1.33365 19.2692 1.1653 18.8553 1.16798 18.4249ZM7.82321 20.0586L16.7872 11.244L19.3205 13.0366C18.3968 13.3665 17.5976 13.9737 17.0321 14.7751C16.4666 15.5765 16.1626 16.5331 16.1614 17.514C16.1614 18.4483 16.4328 19.297 16.9007 20.0587L7.82321 20.0586ZM20.9092 21.4437C20.1308 21.4437 19.3699 21.2129 18.7227 20.7804C18.0755 20.348 17.5711 19.7333 17.2732 19.0142C16.9754 18.295 16.8975 17.5037 17.0493 16.7403C17.2012 15.9769 17.5761 15.2756 18.1265 14.7252C18.6769 14.1748 19.3782 13.8 20.1416 13.6482C20.905 13.4964 21.6964 13.5744 22.4155 13.8723C23.1346 14.1702 23.7492 14.6746 24.1816 15.3219C24.6141 15.9691 24.8448 16.73 24.8448 17.5084C24.8436 18.5518 24.4286 19.5521 23.6908 20.2899C22.953 21.0276 21.9526 21.4426 20.9092 21.4437Z" fill="white"/>
</svg>
