<svg width="8" height="8" viewBox="0 0 8 8" fill="none" xmlns="http://www.w3.org/2000/svg">
<g clip-path="url(#clip0)">
<path d="M4.44172 4.00099L7.90823 0.534464C8.03028 0.412417 8.03028 0.214543 7.90823 0.0925115C7.78618 -0.0295195 7.58831 -0.0295351 7.46628 0.0925115L3.99975 3.55904L0.533243 0.0925115C0.411197 -0.0295351 0.213322 -0.0295351 0.0912908 0.0925115C-0.0307402 0.214558 -0.0307558 0.412433 0.0912908 0.534464L3.5578 4.00097L0.0912908 7.4675C-0.0307558 7.58954 -0.0307558 7.78742 0.0912908 7.90945C0.152306 7.97047 0.232291 8.00097 0.312275 8.00097C0.392259 8.00097 0.472228 7.97047 0.533259 7.90945L3.99975 4.44294L7.46626 7.90945C7.52728 7.97047 7.60726 8.00097 7.68725 8.00097C7.76723 8.00097 7.8472 7.97047 7.90823 7.90945C8.03028 7.7874 8.03028 7.58953 7.90823 7.4675L4.44172 4.00099Z" fill="white"/>
</g>
<defs>
<clipPath id="clip0">
<rect width="8" height="8" fill="white"/>
</clipPath>
</defs>
</svg>
