<svg width="14" height="14" viewBox="0 0 14 14" fill="none" xmlns="http://www.w3.org/2000/svg">
<path d="M11.7512 0.943386H2.23511C1.24016 0.943386 0.430664 1.75272 0.430664 2.74783V8.57149C0.430664 9.56435 1.23664 10.3724 2.2287 10.3759V13.0186L6.02657 10.3759H11.7512C12.7462 10.3759 13.5557 9.56644 13.5557 8.57149V2.74783C13.5557 1.75272 12.7462 0.943386 11.7512 0.943386ZM12.7866 8.57149C12.7866 9.14234 12.3221 9.60689 11.7512 9.60689H5.78528L2.99774 11.5466V9.60689H2.23511C1.66418 9.60689 1.19971 9.14234 1.19971 8.57149V2.74783C1.19971 2.17682 1.66418 1.71243 2.23511 1.71243H11.7512C12.3221 1.71243 12.7866 2.17682 12.7866 2.74783V8.57149Z" fill="white"/>
<path d="M3.9436 3.66075H10.0429V4.42979H3.9436V3.66075Z" fill="white"/>
<path d="M3.9436 5.30138H10.0429V6.07042H3.9436V5.30138Z" fill="white"/>
<path d="M3.9436 6.942H10.0429V7.71105H3.9436V6.942Z" fill="white"/>
</svg>
