<svg width="14" height="14" viewBox="0 0 14 14" fill="none" xmlns="http://www.w3.org/2000/svg">
<g clip-path="url(#clip0)">
<path d="M13.1247 8.31463C13.1247 9.53957 12.3898 9.62707 12.2498 9.62707H1.49216L3.80642 7.31281L3.18957 6.69159L0.127224 9.75394C-0.0424081 9.92458 -0.0424081 10.2001 0.127224 10.3708L3.18957 13.4331L3.80642 12.8163L1.49216 10.502H12.2498C12.8535 10.502 13.9997 10.0645 13.9997 8.31463V7.0022H13.1247V8.31463Z" fill="white"/>
<path d="M0.876422 5.68976C0.876422 4.46482 1.61139 4.37733 1.75138 4.37733H12.509L10.1947 6.69159L10.8116 7.30843L13.8739 4.24608C14.0435 4.07544 14.0435 3.79988 13.8739 3.62924L10.8116 0.566889L10.1903 1.18811L12.509 3.50237H1.75138C1.14766 3.50237 0.00146484 3.93985 0.00146484 5.68976V7.0022H0.876422V5.68976Z" fill="white"/>
</g>
<defs>
<clipPath id="clip0">
<rect width="14" height="14" fill="white"/>
</clipPath>
</defs>
</svg>
