<svg width="18" height="18" viewBox="0 0 18 18" fill="none" xmlns="http://www.w3.org/2000/svg">
<path d="M5.98557 14.1987C6.35999 13.7686 6.58752 13.2075 6.58752 12.5938C6.58752 11.244 5.48945 10.146 4.1397 10.146C3.63165 10.146 3.15933 10.3016 2.76776 10.5676C2.71038 10.2143 2.68117 9.85557 2.68117 9.49405C2.68117 7.76264 3.34358 6.12369 4.54635 4.87899C5.4396 3.95459 6.55975 3.32055 7.78434 3.03089L6.97076 4.01063L7.78403 4.68598L9.87111 2.17266L7.08537 0.612778L6.56892 1.53514L7.44473 2.02557C6.06215 2.37126 4.79842 3.09699 3.7862 4.14443C2.39194 5.58728 1.62409 7.48712 1.62409 9.49409C1.62409 10.2042 1.72084 10.9058 1.91132 11.5829C1.77083 11.8913 1.69191 12.2334 1.69191 12.5938C1.69191 13.2087 1.92032 13.771 2.29607 14.2014C0.970009 14.6941 0.022583 15.9724 0.022583 17.4679V17.9964H8.26577V17.4679C8.26584 15.9697 7.31525 14.6896 5.98557 14.1987ZM4.13973 11.2031C4.90659 11.2031 5.53044 11.827 5.53044 12.5938C5.53044 13.3606 4.90656 13.9845 4.1397 13.9845C3.37287 13.9845 2.74902 13.3606 2.74902 12.5938C2.74902 11.827 3.3729 11.2031 4.13973 11.2031ZM1.13774 16.9393C1.37958 15.8547 2.34961 15.0416 3.50597 15.0416H4.78253C5.93889 15.0416 6.90892 15.8547 7.15076 16.9393H1.13774Z" fill="#B5BED1"/>
<path d="M17.9774 7.32185C17.9774 5.82381 17.0268 4.54363 15.6972 4.05274C16.0716 3.62268 16.2991 3.06148 16.2991 2.44779C16.2991 1.09807 15.2011 0 13.8513 0C12.5016 0 11.4035 1.09807 11.4035 2.44779C11.4035 3.06271 11.6319 3.62493 12.0077 4.05534C10.6816 4.54809 9.73424 5.82634 9.73424 7.32189V7.85043H15.7695C15.8996 8.37397 15.9655 8.91334 15.9655 9.45886C15.9655 11.0551 15.391 12.598 14.3478 13.8033C13.5994 14.6681 12.6461 15.3201 11.5877 15.7043L12.2844 14.6142L11.3938 14.0449L9.6344 16.7977L12.5921 18L12.9902 17.0207L12.0773 16.6496C13.2525 16.1988 14.3105 15.4618 15.1472 14.4951C16.3566 13.0977 17.0227 11.3091 17.0227 9.45882C17.0227 8.91531 16.966 8.37682 16.8542 7.85039H17.9775V7.32185H17.9774ZM13.8513 1.05711C14.6182 1.05711 15.242 1.681 15.242 2.44779C15.242 3.21465 14.6181 3.8385 13.8513 3.8385C13.0845 3.8385 12.4606 3.21462 12.4606 2.44779C12.4606 1.68096 13.0845 1.05711 13.8513 1.05711ZM10.8494 6.79331C11.0912 5.70871 12.0612 4.89565 13.2176 4.89565H14.4942C15.6505 4.89565 16.6205 5.70874 16.8624 6.79331H10.8494Z" fill="#B5BED1"/>
</svg>
