<svg width="11" height="11" viewBox="0 0 11 11" fill="none" xmlns="http://www.w3.org/2000/svg">
<g clip-path="url(#clip0)">
<path d="M10.6078 0H0.393712C0.176739 0 0.000854492 0.175885 0.000854492 0.392858V2.3571C0.000877511 2.46842 0.0481346 2.57451 0.130886 2.649L3.92936 6.06758V10.607C3.92927 10.8239 4.10506 10.9999 4.32204 11C4.38306 11 4.44325 10.9858 4.49783 10.9586L6.85493 9.78002C6.98812 9.71347 7.07225 9.57731 7.07218 9.42841V6.06758L10.8707 2.64978C10.9536 2.57513 11.0009 2.46872 11.0007 2.3571V0.392858C11.0007 0.175885 10.8248 0 10.6078 0ZM10.215 2.18228L6.4165 5.60007C6.33354 5.67472 6.28628 5.78114 6.28647 5.89275V9.18563L4.71506 9.97132V5.89275C4.71503 5.78144 4.66778 5.67534 4.58502 5.60088L0.786547 2.18228V0.785693H10.215V2.18228Z" fill="#354770"/>
</g>
<defs>
<clipPath id="clip0">
<rect width="11" height="11" fill="white"/>
</clipPath>
</defs>
</svg>
