<svg width="20" height="20" viewBox="0 0 20 20" fill="none" xmlns="http://www.w3.org/2000/svg">
<path d="M10.834 15C10.7949 15 10.7557 14.9967 10.7157 14.9892C10.3773 14.9242 10.154 14.5975 10.219 14.2583L11.8857 5.50833C11.9499 5.16833 12.2757 4.94749 12.6165 5.01083C12.9549 5.07583 13.1782 5.40249 13.1132 5.74166L11.4465 14.4917C11.3899 14.7917 11.1282 15 10.834 15Z" fill="#DBE0EB"/>
<path d="M7.50101 15C7.46184 15 7.42267 14.9967 7.38267 14.9892C7.04434 14.9242 6.82101 14.5975 6.88601 14.2583L8.55267 5.50833C8.61684 5.16833 8.94351 4.94749 9.28351 5.01083C9.62184 5.07583 9.84517 5.40249 9.78017 5.74166L8.11351 14.4917C8.05684 14.7917 7.79517 15 7.50101 15Z" fill="#DBE0EB"/>
<path d="M14.375 12.5H5.625C5.28 12.5 5 12.22 5 11.875C5 11.53 5.28 11.25 5.625 11.25H14.375C14.72 11.25 15 11.53 15 11.875C15 12.22 14.72 12.5 14.375 12.5Z" fill="#DBE0EB"/>
<path d="M14.375 8.75H5.625C5.28 8.75 5 8.47 5 8.125C5 7.78 5.28 7.5 5.625 7.5H14.375C14.72 7.5 15 7.78 15 8.125C15 8.47 14.72 8.75 14.375 8.75Z" fill="#DBE0EB"/>
<path d="M17.7083 20H2.29167C1.0275 20 0 18.9725 0 17.7083V2.29167C0 1.0275 1.0275 0 2.29167 0H17.7083C18.9725 0 20 1.0275 20 2.29167V17.7083C20 18.9725 18.9725 20 17.7083 20ZM2.29167 1.25C1.7175 1.25 1.25 1.7175 1.25 2.29167V17.7083C1.25 18.2825 1.7175 18.75 2.29167 18.75H17.7083C18.2825 18.75 18.75 18.2825 18.75 17.7083V2.29167C18.75 1.7175 18.2825 1.25 17.7083 1.25H2.29167Z" fill="#DBE0EB"/>
</svg>
