<svg width="20" height="20" viewBox="0 0 20 20" fill="none" xmlns="http://www.w3.org/2000/svg">
<path d="M4.38071 7.32849C2.90565 7.32849 1.71155 8.52259 1.71155 9.99765C1.71155 11.4727 2.90565 12.6668 4.38071 12.6668C5.85578 12.6668 7.04988 11.4727 7.04988 9.99765C7.04519 8.52727 5.85109 7.33317 4.38071 7.32849ZM4.38071 11.7303C3.42543 11.7303 2.6481 10.9576 2.6481 9.99765C2.6481 9.04238 3.42075 8.26504 4.38071 8.26504C5.33599 8.26504 6.11333 9.03769 6.11333 9.99765C6.10864 10.9529 5.33599 11.7256 4.38071 11.7303Z" fill="#487BF0"/>
<path d="M17.8202 8.07773H8.29078C8.03323 8.07773 7.82251 8.28845 7.82251 8.546C7.82251 8.80355 8.03323 9.01428 8.29078 9.01428H17.8202C18.0777 9.01428 18.2885 8.80355 18.2885 8.546C18.2885 8.28845 18.0777 8.07773 17.8202 8.07773Z" fill="#487BF0"/>
<path d="M13.4231 10.981H8.29078C8.03323 10.981 7.82251 11.1918 7.82251 11.4493C7.82251 11.7069 8.02855 11.9176 8.29078 11.9176H13.4231C13.6806 11.9176 13.8913 11.7069 13.8913 11.4493C13.8913 11.1918 13.6806 10.981 13.4231 10.981Z" fill="#487BF0"/>
<path d="M4.38071 0C2.90565 0 1.71155 1.1941 1.71155 2.66916C1.71155 4.14423 2.90565 5.33833 4.38071 5.33833C5.85578 5.33833 7.04988 4.14423 7.04988 2.66916C7.04519 1.1941 5.85109 0 4.38071 0ZM4.38071 4.3971C3.42543 4.3971 2.6481 3.62444 2.6481 2.66448C2.6481 1.70452 3.42075 0.931866 4.38071 0.931866C5.33599 0.931866 6.11333 1.70452 6.11333 2.66448C6.10864 3.62444 5.33599 4.3971 4.38071 4.3971Z" fill="#487BF0"/>
<path d="M17.8202 0.725815H8.29078C8.03323 0.725815 7.82251 0.936538 7.82251 1.19409C7.82251 1.45164 8.03323 1.66236 8.29078 1.66236H17.8202C18.0777 1.66236 18.2885 1.45164 18.2885 1.19409C18.2885 0.936538 18.0777 0.725815 17.8202 0.725815Z" fill="#487BF0"/>
<path d="M13.4231 3.67596H8.29078C8.03323 3.67596 7.82251 3.88669 7.82251 4.14424C7.82251 4.40179 8.02855 4.61251 8.29078 4.61251H13.4231C13.6806 4.61251 13.8913 4.40179 13.8913 4.14424C13.8913 3.88669 13.6806 3.67596 13.4231 3.67596Z" fill="#487BF0"/>
<path d="M4.38071 14.6617C2.90565 14.6617 1.71155 15.8558 1.71155 17.3308C1.71155 18.8059 2.90565 20 4.38071 20C5.85578 20 7.04988 18.8059 7.04988 17.3308C7.04519 15.8558 5.85109 14.6617 4.38071 14.6617ZM4.38071 19.0588C3.42543 19.0588 2.6481 18.2861 2.6481 17.3261C2.6481 16.3709 3.42075 15.5935 4.38071 15.5935C5.33599 15.5935 6.11333 16.3662 6.11333 17.3261C6.10864 18.2861 5.33599 19.0588 4.38071 19.0588Z" fill="#487BF0"/>
<path d="M17.8202 15.3828H8.29078C8.03323 15.3828 7.82251 15.5935 7.82251 15.8511C7.82251 16.1086 8.03323 16.3194 8.29078 16.3194H17.8202C18.0777 16.3194 18.2885 16.1086 18.2885 15.8511C18.2885 15.5935 18.0777 15.3828 17.8202 15.3828Z" fill="#487BF0"/>
<path d="M13.4231 18.3329H8.29078C8.03323 18.3329 7.82251 18.5437 7.82251 18.8012C7.82251 19.0588 8.03323 19.2695 8.29078 19.2695H13.4231C13.6806 19.2695 13.8913 19.0588 13.8913 18.8012C13.8913 18.5437 13.6806 18.3329 13.4231 18.3329Z" fill="#487BF0"/>
</svg>
