<svg width="15" height="15" viewBox="0 0 15 15" fill="none" xmlns="http://www.w3.org/2000/svg">
<path d="M12.9126 3.47271L9.74021 0.300381C9.54653 0.10667 9.28904 0 9.01512 0H2.8125C2.2471 0 1.78711 0.45999 1.78711 1.02539V13.9746C1.78711 14.54 2.2471 15 2.8125 15H12.1875C12.7529 15 13.2129 14.54 13.2129 13.9746V4.19777C13.2129 3.92394 13.1062 3.66645 12.9126 3.47271ZM11.7125 3.51562H9.84375C9.76298 3.51562 9.69727 3.44991 9.69727 3.36914V1.50041L11.7125 3.51562ZM12.1875 14.1211H2.8125C2.73173 14.1211 2.66602 14.0554 2.66602 13.9746V1.02539C2.66602 0.944619 2.73173 0.878906 2.8125 0.878906H8.81836V3.36914C8.81836 3.93454 9.27835 4.39453 9.84375 4.39453H12.334V13.9746C12.334 14.0554 12.2683 14.1211 12.1875 14.1211Z" fill="#DBE0EB"/>
<path d="M7.97168 6.70898H10.7716C11.0143 6.70898 11.2111 6.51223 11.2111 6.26953C11.2111 6.02684 11.0143 5.83008 10.7716 5.83008H7.97168C7.72898 5.83008 7.53223 6.02684 7.53223 6.26953C7.53223 6.51223 7.72896 6.70898 7.97168 6.70898Z" fill="#DBE0EB"/>
<path d="M7.97168 9.63867H10.7716C11.0143 9.63867 11.2111 9.44191 11.2111 9.19922C11.2111 8.95652 11.0143 8.75977 10.7716 8.75977H7.97168C7.72898 8.75977 7.53223 8.95652 7.53223 9.19922C7.53223 9.44191 7.72896 9.63867 7.97168 9.63867Z" fill="#DBE0EB"/>
<path d="M10.7842 11.6895H7.97168C7.72898 11.6895 7.53223 11.8862 7.53223 12.1289C7.53223 12.3716 7.72898 12.5684 7.97168 12.5684H10.7842C11.0269 12.5684 11.2236 12.3716 11.2236 12.1289C11.2236 11.8862 11.0269 11.6895 10.7842 11.6895Z" fill="#DBE0EB"/>
<path d="M5.77897 5.07296L4.76553 6.08637L4.52656 5.84739C4.35497 5.67577 4.0767 5.67577 3.90508 5.84739C3.73346 6.01901 3.73346 6.29725 3.90508 6.46887L4.45481 7.01859C4.54062 7.1044 4.65309 7.14732 4.76553 7.14732C4.87797 7.14732 4.99047 7.10443 5.07625 7.01859L6.40042 5.69443C6.57204 5.52281 6.57204 5.24458 6.40042 5.07296C6.22882 4.90134 5.95056 4.90134 5.77897 5.07296Z" fill="#DBE0EB"/>
<path d="M5.77897 8.22641L4.76553 9.23984L4.52656 9.00087C4.35497 8.82928 4.0767 8.82925 3.90508 9.00087C3.73346 9.17249 3.73346 9.45072 3.90508 9.62234L4.45481 10.172C4.54062 10.2578 4.65309 10.3007 4.76553 10.3007C4.87797 10.3007 4.99047 10.2578 5.07625 10.172L6.40042 8.84785C6.57204 8.67623 6.57204 8.398 6.40042 8.22638C6.22882 8.05479 5.95056 8.05479 5.77897 8.22641Z" fill="#DBE0EB"/>
<path d="M5.77897 11.1561L4.76553 12.1695L4.52656 11.9306C4.35497 11.759 4.0767 11.7589 3.90508 11.9306C3.73346 12.1022 3.73346 12.3804 3.90508 12.552L4.45481 13.1017C4.54062 13.1875 4.65309 13.2304 4.76553 13.2304C4.87797 13.2304 4.99047 13.1875 5.07625 13.1017L6.40042 11.7775C6.57204 11.6059 6.57204 11.3277 6.40042 11.1561C6.22882 10.9845 5.95056 10.9845 5.77897 11.1561Z" fill="#DBE0EB"/>
</svg>
