<svg width="12" height="12" viewBox="0 0 12 12" fill="none" xmlns="http://www.w3.org/2000/svg">
<g clip-path="url(#clip0)">
<path d="M6.00001 0C2.68085 0 0 2.68085 0 6.00001C0 9.31917 2.68085 12 6.00001 12C9.31917 12 12 9.31917 12 6.00001C12 2.68085 9.31915 0 6.00001 0ZM6.00001 11.0043C3.24256 11.0043 0.995745 8.75744 0.995745 5.99999C0.995745 3.24254 3.24256 0.995745 6.00001 0.995745C8.75746 0.995745 11.0043 3.24256 11.0043 6.00001C11.0043 8.75746 8.75746 11.0043 6.00001 11.0043Z" fill="white"/>
<path d="M4.03407 3.72754C3.75323 3.72754 3.52344 3.95733 3.52344 4.23817V4.36582C3.52344 4.64666 3.75323 4.87645 4.03407 4.87645C4.31491 4.87645 4.5447 4.64666 4.5447 4.36582V4.23817C4.54472 3.95733 4.31494 3.72754 4.03407 3.72754Z" fill="white"/>
<path d="M7.96595 3.72754C7.68511 3.72754 7.45532 3.95733 7.45532 4.23817V4.36582C7.45532 4.64666 7.68511 4.87645 7.96595 4.87645C8.2468 4.87645 8.47658 4.64666 8.47658 4.36582V4.23817C8.47658 3.95733 8.2468 3.72754 7.96595 3.72754Z" fill="white"/>
<path d="M8.93605 6.74059C8.7318 6.53634 8.42542 6.53634 8.22115 6.74059C6.99562 7.96612 5.02966 7.96612 3.80413 6.74059C3.59988 6.53634 3.2935 6.53634 3.08923 6.74059C2.88496 6.94484 2.88498 7.25122 3.08923 7.45549C3.88073 8.24699 4.95307 8.65548 5.99987 8.65548C7.04667 8.65548 8.11901 8.2725 8.93605 7.45549C9.14032 7.25122 9.14032 6.94484 8.93605 6.74059Z" fill="white"/>
</g>
<defs>
<clipPath id="clip0">
<rect width="12" height="12" fill="white"/>
</clipPath>
</defs>
</svg>
