<svg width="21" height="21" viewBox="0 0 21 21" fill="none" xmlns="http://www.w3.org/2000/svg">
<path d="M17.3906 2.625H13.7812V1.96875C13.7812 0.883189 12.8981 0 11.8125 0H9.1875C8.10194 0 7.21875 0.883189 7.21875 1.96875V2.625H3.60938C2.70473 2.625 1.96875 3.36098 1.96875 4.26562V6.5625C1.96875 6.92491 2.26259 7.21875 2.625 7.21875H2.98364L3.5506 19.1249C3.60068 20.1764 4.46447 21 5.51709 21H15.4829C16.5356 21 17.3994 20.1764 17.4494 19.1249L18.0164 7.21875H18.375C18.7374 7.21875 19.0312 6.92491 19.0312 6.5625V4.26562C19.0312 3.36098 18.2953 2.625 17.3906 2.625ZM8.53125 1.96875C8.53125 1.60691 8.82566 1.3125 9.1875 1.3125H11.8125C12.1743 1.3125 12.4688 1.60691 12.4688 1.96875V2.625H8.53125V1.96875ZM3.28125 4.26562C3.28125 4.0847 3.42846 3.9375 3.60938 3.9375H17.3906C17.5715 3.9375 17.7188 4.0847 17.7188 4.26562V5.90625C17.5165 5.90625 4.11932 5.90625 3.28125 5.90625V4.26562ZM16.1384 19.0625C16.1217 19.4129 15.8338 19.6875 15.4829 19.6875H5.51709C5.1662 19.6875 4.87828 19.4129 4.86162 19.0625L4.29762 7.21875H16.7024L16.1384 19.0625Z" fill="#B5BED1"/>
<path d="M10.5 18.375C10.8624 18.375 11.1562 18.0812 11.1562 17.7188V9.1875C11.1562 8.82509 10.8624 8.53125 10.5 8.53125C10.1376 8.53125 9.84375 8.82509 9.84375 9.1875V17.7188C9.84375 18.0812 10.1375 18.375 10.5 18.375Z" fill="#B5BED1"/>
<path d="M13.7812 18.375C14.1437 18.375 14.4375 18.0812 14.4375 17.7188V9.1875C14.4375 8.82509 14.1437 8.53125 13.7812 8.53125C13.4188 8.53125 13.125 8.82509 13.125 9.1875V17.7188C13.125 18.0812 13.4188 18.375 13.7812 18.375Z" fill="#B5BED1"/>
<path d="M7.21875 18.375C7.58116 18.375 7.875 18.0812 7.875 17.7188V9.1875C7.875 8.82509 7.58116 8.53125 7.21875 8.53125C6.85634 8.53125 6.5625 8.82509 6.5625 9.1875V17.7188C6.5625 18.0812 6.85629 18.375 7.21875 18.375Z" fill="#B5BED1"/>
</svg>
