<svg width="21" height="20" viewBox="0 0 21 20" fill="none" xmlns="http://www.w3.org/2000/svg">
<path d="M10.5607 9.63408C11.8843 9.63408 13.0302 9.15938 13.9668 8.22279C14.9031 7.28636 15.3779 6.14058 15.3779 4.81689C15.3779 3.49365 14.9032 2.34771 13.9666 1.41098C13.0301 0.4747 11.8841 0 10.5607 0C9.23703 0 8.09125 0.4747 7.15482 1.41113C6.21838 2.34756 5.74353 3.49349 5.74353 4.81689C5.74353 6.14058 6.21838 7.28652 7.15482 8.22295C8.09155 9.15922 9.23749 9.63408 10.5607 9.63408ZM7.98367 2.23983C8.70221 1.5213 9.5451 1.17203 10.5607 1.17203C11.5762 1.17203 12.4193 1.5213 13.1379 2.23983C13.8565 2.95852 14.2059 3.80157 14.2059 4.81689C14.2059 5.83251 13.8565 6.6754 13.1379 7.39409C12.4193 8.11278 11.5762 8.46205 10.5607 8.46205C9.54541 8.46205 8.70251 8.11263 7.98367 7.39409C7.26498 6.67555 6.91556 5.83251 6.91556 4.81689C6.91556 3.80157 7.26498 2.95852 7.98367 2.23983Z" fill="#DBE0EB"/>
<path d="M18.9895 15.379C18.9625 14.9893 18.9079 14.5642 18.8275 14.1153C18.7463 13.663 18.6418 13.2354 18.5167 12.8447C18.3873 12.4408 18.2116 12.0419 17.9942 11.6597C17.7688 11.2629 17.5039 10.9175 17.2067 10.6332C16.8959 10.3358 16.5153 10.0967 16.0753 9.92231C15.6367 9.74882 15.1507 9.66093 14.6309 9.66093C14.4267 9.66093 14.2292 9.7447 13.8479 9.99296C13.6133 10.146 13.3387 10.323 13.0323 10.5188C12.7704 10.6857 12.4154 10.8421 11.9771 10.9837C11.5493 11.1221 11.1151 11.1923 10.6863 11.1923C10.2578 11.1923 9.82358 11.1221 9.39557 10.9837C8.95764 10.8423 8.60257 10.6859 8.34103 10.5189C8.03754 10.325 7.76288 10.148 7.52469 9.99281C7.14368 9.74455 6.94623 9.66078 6.74207 9.66078C6.22205 9.66078 5.73621 9.74882 5.29782 9.92247C4.85806 10.0966 4.47736 10.3357 4.16623 10.6334C3.86899 10.9178 3.6041 11.2631 3.37888 11.6597C3.16174 12.0419 2.98596 12.4406 2.85657 12.8448C2.7316 13.2356 2.62708 13.663 2.5459 14.1153C2.46533 14.5636 2.41086 14.9888 2.38385 15.3795C2.3573 15.7614 2.34387 16.1589 2.34387 16.5605C2.34387 17.6045 2.67575 18.4497 3.3302 19.073C3.97656 19.6881 4.83167 20 5.87186 20H15.502C16.5419 20 17.397 19.6881 18.0435 19.073C18.6981 18.4501 19.03 17.6046 19.03 16.5603C19.0298 16.1574 19.0162 15.7599 18.9895 15.379ZM17.2354 18.2238C16.8083 18.6303 16.2413 18.8279 15.5018 18.8279H5.87186C5.13226 18.8279 4.56525 18.6303 4.13831 18.224C3.71945 17.8253 3.5159 17.281 3.5159 16.5605C3.5159 16.1857 3.52826 15.8157 3.55298 15.4605C3.57709 15.112 3.62637 14.7291 3.69946 14.3223C3.77164 13.9206 3.86349 13.5435 3.97275 13.2022C4.07758 12.8749 4.22055 12.5508 4.39786 12.2386C4.56708 11.941 4.76178 11.6858 4.97662 11.4801C5.17758 11.2877 5.43088 11.1302 5.72934 11.0121C6.00537 10.9028 6.31558 10.843 6.65234 10.834C6.69339 10.8558 6.76648 10.8975 6.88489 10.9747C7.12582 11.1317 7.40353 11.3109 7.71054 11.5069C8.05661 11.7276 8.50247 11.9269 9.03516 12.0988C9.57974 12.2749 10.1352 12.3643 10.6865 12.3643C11.2378 12.3643 11.7933 12.2749 12.3376 12.099C12.8708 11.9267 13.3165 11.7276 13.663 11.5066C13.9772 11.3058 14.2471 11.1319 14.488 10.9747C14.6064 10.8977 14.6795 10.8558 14.7206 10.834C15.0575 10.843 15.3677 10.9028 15.6439 11.0121C15.9422 11.1302 16.1955 11.2878 16.3965 11.4801C16.6113 11.6856 16.806 11.9409 16.9752 12.2387C17.1527 12.5508 17.2958 12.875 17.4005 13.202C17.5099 13.5438 17.6019 13.9207 17.6739 14.3222C17.7469 14.7297 17.7963 15.1127 17.8204 15.4606V15.4609C17.8453 15.8148 17.8578 16.1847 17.8579 16.5605C17.8578 17.2812 17.6542 17.8253 17.2354 18.2238Z" fill="#DBE0EB"/>
</svg>
