<svg width="20" height="20" viewBox="0 0 20 20" fill="none" xmlns="http://www.w3.org/2000/svg">
<path d="M14.2076 9.6644C13.9371 10.005 13.6332 10.3194 13.2842 10.6032C15.2764 11.746 16.6214 13.8944 16.6214 16.3511C16.6214 17.6786 13.7129 18.7184 9.99998 18.7184C6.28706 18.7184 3.37857 17.6786 3.37857 16.3511C3.37857 13.8944 4.72354 11.746 6.71574 10.6032C6.36677 10.3194 6.06289 10.005 5.79237 9.6644C3.57381 11.0654 2.09702 13.5389 2.09702 16.3511C2.09702 17.203 2.56348 18.3903 4.78585 19.2085C6.1721 19.719 8.02386 20 10 20C11.9762 20 13.8279 19.719 15.2142 19.2085C17.4365 18.3903 17.903 17.203 17.903 16.3511C17.9029 13.5389 16.4262 11.0654 14.2076 9.6644Z" fill="#DBE0EB"/>
<path d="M9.99993 10.5088C12.4906 10.5088 14.4085 8.10131 14.4085 5.25444C14.4085 2.40626 12.4896 0 9.99993 0C7.50926 0 5.59134 2.40753 5.59134 5.2544C5.59134 8.10258 7.51027 10.5088 9.99993 10.5088ZM9.99993 1.28155C11.7242 1.28155 13.127 3.06376 13.127 5.2544C13.127 7.44504 11.7242 9.22725 9.99993 9.22725C8.27571 9.22725 6.87289 7.44504 6.87289 5.2544C6.87289 3.06376 8.27571 1.28155 9.99993 1.28155Z" fill="#DBE0EB"/>
</svg>
