<svg width="25" height="25" viewBox="0 0 25 25" fill="none" xmlns="http://www.w3.org/2000/svg">
<path d="M20.0286 3.31641H4.97143C2.2301 3.31641 0 5.55365 0 8.30314V16.6965C0 19.4465 2.2301 21.6832 4.97143 21.6832H20.0286C22.7699 21.6832 25 19.446 25 16.6965V8.30314C25 5.55365 22.7699 3.31641 20.0286 3.31641ZM23.9796 16.697C23.9796 18.8843 22.2071 20.6633 20.0286 20.6633H4.97143C2.79286 20.6633 1.02041 18.8838 1.02041 16.697V8.30314C1.02041 6.11641 2.79286 4.33681 4.97143 4.33681H20.0286C22.2071 4.33681 23.9796 6.11641 23.9796 8.30314V16.697Z" fill="white"/>
<path d="M17.0203 12.3156L9.95145 8.17525C9.79431 8.08341 9.5989 8.08188 9.44023 8.1727C9.28155 8.26351 9.18359 8.43239 9.18359 8.61555V16.8957C9.18359 17.0783 9.28155 17.2477 9.43972 17.3385C9.51829 17.3834 9.60604 17.4059 9.6938 17.4059C9.78308 17.4059 9.87186 17.3824 9.95145 17.336L17.0203 13.1967C17.1765 13.1053 17.2729 12.9375 17.2729 12.7564C17.2729 12.5752 17.177 12.4069 17.0203 12.3156ZM10.204 16.0054V9.50535L15.753 12.7559L10.204 16.0054Z" fill="white"/>
</svg>
