<svg width="18" height="18" viewBox="0 0 18 18" fill="none" xmlns="http://www.w3.org/2000/svg">
<path d="M10.9688 13.7812H12.6562V15.4688C12.6562 15.5433 12.6859 15.6149 12.7386 15.6676C12.7914 15.7204 12.8629 15.75 12.9375 15.75C13.0121 15.75 13.0836 15.7204 13.1364 15.6676C13.1891 15.6149 13.2188 15.5433 13.2188 15.4688V13.7812H14.9062C14.9808 13.7812 15.0524 13.7516 15.1051 13.6989C15.1579 13.6461 15.1875 13.5746 15.1875 13.5C15.1875 13.4254 15.1579 13.3539 15.1051 13.3011C15.0524 13.2484 14.9808 13.2188 14.9062 13.2188H13.2188V11.5312C13.2188 11.4567 13.1891 11.3851 13.1364 11.3324C13.0836 11.2796 13.0121 11.25 12.9375 11.25C12.8629 11.25 12.7914 11.2796 12.7386 11.3324C12.6859 11.3851 12.6562 11.4567 12.6562 11.5312V13.2188H10.9688C10.8942 13.2188 10.8226 13.2484 10.7699 13.3011C10.7171 13.3539 10.6875 13.4254 10.6875 13.5C10.6875 13.5746 10.7171 13.6461 10.7699 13.6989C10.8226 13.7516 10.8942 13.7812 10.9688 13.7812Z" fill="white"/>
<path d="M1.27157 14.5907C1.40045 14.661 4.46425 16.3125 7.59375 16.3125C8.38566 16.3091 9.17517 16.2252 9.9501 16.0621C10.3799 16.5632 10.9288 16.9482 11.5463 17.1816C12.1638 17.4151 12.8301 17.4895 13.4839 17.398C14.1377 17.3065 14.758 17.052 15.2877 16.658C15.8175 16.264 16.2396 15.7432 16.5153 15.1433C16.791 14.5435 16.9114 13.8839 16.8655 13.2253C16.8196 12.5668 16.6088 11.9303 16.2525 11.3746C15.8962 10.8188 15.4058 10.3616 14.8265 10.0449C14.2473 9.72825 13.5977 9.56237 12.9375 9.5625C12.8622 9.5625 12.7875 9.56482 12.7132 9.56904C11.8197 8.23268 10.5607 7.32256 9.12326 6.94554C9.79931 6.60184 10.3399 6.04046 10.6579 5.35192C10.9758 4.66337 11.0526 3.88781 10.8758 3.1503C10.699 2.41278 10.279 1.75631 9.68341 1.28673C9.08786 0.817161 8.35151 0.561864 7.5931 0.562012C6.83469 0.56216 6.09844 0.817745 5.50307 1.28755C4.9077 1.75736 4.48792 2.414 4.31142 3.15158C4.13493 3.88916 4.212 4.6647 4.53022 5.35311C4.84844 6.04153 5.38925 6.60271 6.06544 6.94614C4.89966 7.252 3.84514 7.9097 3.00653 8.87172C1.79321 10.2636 1.125 12.2069 1.125 14.3438C1.125 14.3943 1.13861 14.4439 1.1644 14.4873C1.19019 14.5308 1.22721 14.5665 1.27157 14.5907ZM12.9375 10.125C13.605 10.125 14.2575 10.3229 14.8125 10.6938C15.3676 11.0646 15.8001 11.5917 16.0556 12.2084C16.311 12.8251 16.3779 13.5037 16.2477 14.1584C16.1174 14.8131 15.796 15.4145 15.324 15.8865C14.852 16.3585 14.2506 16.6799 13.5959 16.8102C12.9412 16.9404 12.2626 16.8735 11.6459 16.6181C11.0292 16.3627 10.5021 15.9301 10.1313 15.3751C9.76044 14.82 9.5625 14.1675 9.5625 13.5C9.56351 12.6052 9.91941 11.7473 10.5521 11.1146C11.1848 10.4819 12.0427 10.126 12.9375 10.125ZM4.78125 3.9375C4.78125 3.38124 4.9462 2.83748 5.25524 2.37496C5.56428 1.91245 6.00354 1.55196 6.51745 1.33909C7.03137 1.12622 7.59687 1.07052 8.14244 1.17905C8.68801 1.28757 9.18915 1.55543 9.58249 1.94877C9.97582 2.3421 10.2437 2.84324 10.3522 3.38881C10.4607 3.93438 10.405 4.49988 10.1922 5.0138C9.97929 5.52772 9.6188 5.96697 9.15629 6.27601C8.69378 6.58505 8.15001 6.75 7.59375 6.75C6.84809 6.74916 6.13321 6.45257 5.60595 5.92531C5.07868 5.39804 4.7821 4.68317 4.78125 3.9375ZM3.43055 9.24135C4.51484 7.99752 5.99337 7.3125 7.59375 7.3125C9.37652 7.3125 10.9934 8.16117 12.0873 9.65521C11.4743 9.79053 10.9025 10.0705 10.4198 10.4718C9.93701 10.8731 9.55726 11.3841 9.31221 11.9621C9.06717 12.5401 8.96394 13.1683 9.01115 13.7943C9.05836 14.4203 9.25464 15.0259 9.58359 15.5606C8.92746 15.6842 8.26141 15.7475 7.59375 15.75C4.98558 15.75 2.33462 14.499 1.68898 14.1735C1.72311 12.2401 2.33849 10.4941 3.43055 9.24135Z" fill="white"/>
</svg>
