<svg width="12" height="12" viewBox="0 0 12 12" fill="none" xmlns="http://www.w3.org/2000/svg">
<path d="M10.7143 1.28571H9.42857V0.428579C9.42857 0.191878 9.2367 0 8.99999 0C8.76329 0 8.57141 0.191878 8.57141 0.428579V1.28571H3.42856V0.428579C3.42856 0.191878 3.23668 0 3.00001 0C2.76333 0 2.57143 0.191878 2.57143 0.428579V1.28571H1.28571C0.575633 1.28571 0 1.86135 0 2.57143V10.7143C0 11.4244 0.575633 12 1.28571 12H10.7143C11.4244 12 12 11.4244 12 10.7143V2.57143C12 1.86135 11.4244 1.28571 10.7143 1.28571ZM11.1428 10.7143C11.1428 10.951 10.951 11.1429 10.7143 11.1429H1.28571C1.04901 11.1429 0.857134 10.951 0.857134 10.7143V5.14285H11.1428V10.7143ZM11.1428 4.28572H0.857134V2.57143C0.857134 2.33472 1.04901 2.14285 1.28571 2.14285H2.57143V2.99998C2.57143 3.23668 2.7633 3.42856 3.00001 3.42856C3.23671 3.42856 3.42859 3.23668 3.42859 2.99998V2.14285H8.57144V2.99998C8.57144 3.23668 8.76332 3.42856 9.00002 3.42856C9.23672 3.42856 9.4286 3.23668 9.4286 2.99998V2.14285H10.7143C10.951 2.14285 11.1429 2.33472 11.1429 2.57143V4.28572H11.1428Z" fill="#B5BED1"/>
<path d="M3.42854 5.99998H2.5714C2.3347 5.99998 2.14282 6.19186 2.14282 6.42857C2.14282 6.66527 2.3347 6.85715 2.5714 6.85715H3.42854C3.66524 6.85715 3.85712 6.66527 3.85712 6.42857C3.85712 6.19186 3.66524 5.99998 3.42854 5.99998Z" fill="#B5BED1"/>
<path d="M6.42854 5.99998H5.5714C5.3347 5.99998 5.14282 6.19186 5.14282 6.42857C5.14282 6.66527 5.3347 6.85715 5.5714 6.85715H6.42854C6.66524 6.85715 6.85711 6.66527 6.85711 6.42857C6.85711 6.19186 6.66524 5.99998 6.42854 5.99998Z" fill="#B5BED1"/>
<path d="M9.42853 5.99998H8.5714C8.3347 5.99998 8.14282 6.19186 8.14282 6.42857C8.14282 6.66527 8.3347 6.85715 8.5714 6.85715H9.42853C9.66524 6.85715 9.85711 6.66527 9.85711 6.42857C9.85709 6.19186 9.66521 5.99998 9.42853 5.99998Z" fill="#B5BED1"/>
<path d="M3.42854 7.71428H2.5714C2.3347 7.71428 2.14282 7.90616 2.14282 8.14286C2.14282 8.37956 2.3347 8.57144 2.5714 8.57144H3.42854C3.66524 8.57144 3.85712 8.37956 3.85712 8.14286C3.85712 7.90616 3.66524 7.71428 3.42854 7.71428Z" fill="#B5BED1"/>
<path d="M6.42854 7.71428H5.5714C5.3347 7.71428 5.14282 7.90616 5.14282 8.14286C5.14282 8.37956 5.3347 8.57144 5.5714 8.57144H6.42854C6.66524 8.57144 6.85711 8.37956 6.85711 8.14286C6.85711 7.90616 6.66524 7.71428 6.42854 7.71428Z" fill="#B5BED1"/>
<path d="M9.42853 7.71428H8.5714C8.3347 7.71428 8.14282 7.90616 8.14282 8.14286C8.14282 8.37956 8.3347 8.57144 8.5714 8.57144H9.42853C9.66524 8.57144 9.85711 8.37956 9.85711 8.14286C9.85709 7.90616 9.66521 7.71428 9.42853 7.71428Z" fill="#B5BED1"/>
<path d="M3.42854 9.42857H2.5714C2.3347 9.42857 2.14282 9.62045 2.14282 9.85715C2.14282 10.0939 2.3347 10.2857 2.5714 10.2857H3.42854C3.66524 10.2857 3.85712 10.0938 3.85712 9.85713C3.85712 9.62043 3.66524 9.42857 3.42854 9.42857Z" fill="#B5BED1"/>
<path d="M6.42854 9.42857H5.5714C5.3347 9.42857 5.14282 9.62045 5.14282 9.85715C5.14282 10.0939 5.3347 10.2857 5.5714 10.2857H6.42854C6.66524 10.2857 6.85711 10.0939 6.85711 9.85715C6.85711 9.62045 6.66524 9.42857 6.42854 9.42857Z" fill="#B5BED1"/>
<path d="M9.42853 9.42857H8.5714C8.3347 9.42857 8.14282 9.62045 8.14282 9.85715C8.14282 10.0939 8.3347 10.2857 8.5714 10.2857H9.42853C9.66524 10.2857 9.85711 10.0939 9.85711 9.85715C9.85711 9.62045 9.66521 9.42857 9.42853 9.42857Z" fill="#B5BED1"/>
</svg>
