<svg width="11" height="11" viewBox="0 0 11 11" fill="none" xmlns="http://www.w3.org/2000/svg">
<path d="M7.45975 6.47133L5.92604 5.32106V2.97793C5.92604 2.74233 5.73561 2.5519 5.50001 2.5519C5.26441 2.5519 5.07397 2.74233 5.07397 2.97793V5.5341C5.07397 5.66829 5.13703 5.79483 5.24439 5.87493L6.94849 7.15301C7.02516 7.21052 7.11465 7.23822 7.20368 7.23822C7.33361 7.23822 7.46142 7.17984 7.54493 7.06737C7.68641 6.87947 7.64806 6.61236 7.45975 6.47133Z" fill="#B5BED1"/>
<path d="M5.5 0C2.46712 0 0 2.46712 0 5.5C0 8.53288 2.46712 11 5.5 11C8.53288 11 11 8.53288 11 5.5C11 2.46712 8.53288 0 5.5 0ZM5.5 10.148C2.93745 10.148 0.852049 8.06255 0.852049 5.5C0.852049 2.93745 2.93745 0.852049 5.5 0.852049C8.06298 0.852049 10.148 2.93745 10.148 5.5C10.148 8.06255 8.06255 10.148 5.5 10.148Z" fill="#B5BED1"/>
</svg>
