<svg width="12" height="12" viewBox="0 0 12 12" fill="none" xmlns="http://www.w3.org/2000/svg">
<path d="M7.48212 1.6195L7.07545 1.50801C7.02311 1.49055 6.97155 1.49604 6.92141 1.52443C6.87111 1.55284 6.83714 1.59549 6.81968 1.65232L4.37374 10.118C4.35628 10.1749 4.36175 10.2285 4.39016 10.2787C4.41857 10.329 4.46113 10.3629 4.51805 10.3803L4.9246 10.4918C4.97706 10.5094 5.02844 10.5039 5.07872 10.4755C5.12901 10.4469 5.16292 10.4044 5.18035 10.3477L7.62636 1.88186C7.64379 1.82504 7.63837 1.77143 7.60992 1.72111C7.58148 1.67081 7.53897 1.63693 7.48212 1.6195Z" fill="white"/>
<path d="M3.81651 3.27212C3.81651 3.2153 3.79462 3.16498 3.75091 3.12129L3.423 2.7934C3.37929 2.74969 3.32899 2.72778 3.27217 2.72778C3.21535 2.72778 3.16502 2.74972 3.12134 2.7934L0.0655964 5.84915C0.0218195 5.89285 0 5.94315 0 5.99998C0 6.0568 0.0218884 6.1071 0.0655964 6.15078L3.12132 9.20653C3.165 9.2503 3.21523 9.27208 3.27215 9.27208C3.32906 9.27208 3.37929 9.25023 3.42298 9.20653L3.75089 8.87882C3.7946 8.83514 3.81649 8.78481 3.81649 8.72792C3.81649 8.67117 3.7946 8.62087 3.75089 8.57718L1.17382 5.99998L3.75091 3.42295C3.79469 3.37927 3.81651 3.32895 3.81651 3.27212Z" fill="white"/>
<path d="M11.9345 5.8489L8.87873 2.79316C8.83505 2.74947 8.78472 2.72754 8.72799 2.72754C8.67108 2.72754 8.62094 2.74947 8.57709 2.79316L8.24932 3.12103C8.20563 3.16473 8.18384 3.21496 8.18384 3.27186C8.18384 3.32875 8.20561 3.379 8.24932 3.42269L10.8265 5.99978L8.24932 8.57701C8.20563 8.62069 8.18384 8.67101 8.18384 8.72775C8.18384 8.78466 8.20561 8.83496 8.24932 8.87864L8.57709 9.20635C8.62094 9.25013 8.6711 9.2719 8.72799 9.2719C8.78475 9.2719 8.83505 9.25006 8.87873 9.20635L11.9345 6.15063C11.9783 6.10695 12.0001 6.05655 12.0001 5.99973C12.0001 5.94289 11.9783 5.89259 11.9345 5.8489Z" fill="white"/>
</svg>
