<svg width="16" height="16" viewBox="0 0 16 16" fill="none" xmlns="http://www.w3.org/2000/svg">
<g clip-path="url(#clip0)">
<path d="M6.6332 12.195L4.74785 14.0803C3.96622 14.862 2.70043 14.862 1.91946 14.0805C1.13833 13.2994 1.13833 12.0334 1.9193 11.2525L5.69067 7.4811C6.47164 6.7001 7.73756 6.7001 8.51853 7.4811C8.77887 7.74145 9.201 7.74145 9.46135 7.4811C9.72169 7.22076 9.72169 6.79863 9.46135 6.53828C8.15965 5.23659 6.04955 5.23659 4.74785 6.53828L0.976515 10.3096C-0.32518 11.6113 -0.32518 13.7214 0.976515 15.0231C2.27805 16.3255 4.38832 16.3255 5.6907 15.0231L7.57605 13.1378C7.8364 12.8774 7.8364 12.4553 7.57605 12.1949C7.31571 11.9346 6.89355 11.9346 6.6332 12.195Z" fill="#DBE0EB"/>
<path d="M15.0236 0.976271C13.7219 -0.325424 11.6111 -0.325424 10.3094 0.976271L8.04738 3.23828C7.78703 3.49863 7.78703 3.92076 8.04738 4.1811C8.30772 4.44145 8.72985 4.44145 8.9902 4.1811L11.2522 1.91909C12.0332 1.13808 13.2998 1.13808 14.0808 1.91909C14.8617 2.70006 14.8617 3.96598 14.0808 4.74695L9.93273 8.89501C9.15173 9.67601 7.88585 9.67601 7.10487 8.89501C6.84453 8.63466 6.4224 8.63466 6.16206 8.89501C5.90171 9.15535 5.90171 9.57748 6.16206 9.83782C7.46375 11.1395 9.57386 11.1395 10.8756 9.83782L15.0236 5.6898C16.3253 4.3881 16.3253 2.27797 15.0236 0.976271Z" fill="#DBE0EB"/>
</g>
<defs>
<clipPath id="clip0">
<rect width="16" height="16" fill="white"/>
</clipPath>
</defs>
</svg>
