<svg width="30" height="30" viewBox="0 0 30 30" fill="none" xmlns="http://www.w3.org/2000/svg">
<g opacity="0.15">
<path d="M28.5035 25.8934H8.44267C7.61587 25.8934 6.94574 25.2233 6.94574 24.3965C6.94574 23.5697 7.61587 22.8996 8.44267 22.8996H28.503C29.3299 22.8996 30 23.5697 30 24.3965C30 25.2233 29.3304 25.8934 28.5035 25.8934Z" fill="white"/>
<path d="M28.5035 16.4972H8.44267C7.61587 16.4972 6.94574 15.8271 6.94574 15.0003C6.94574 14.1735 7.61587 13.5033 8.44267 13.5033H28.503C29.3299 13.5033 30 14.1735 30 15.0003C30.0005 15.8271 29.3304 16.4972 28.5035 16.4972Z" fill="white"/>
<path d="M28.5035 7.10095H8.44267C7.61587 7.10095 6.94574 6.43082 6.94574 5.60402C6.94574 4.77721 7.61587 4.10709 8.44267 4.10709H28.503C29.3299 4.10709 30 4.77721 30 5.60402C30 6.43082 29.3304 7.10095 28.5035 7.10095Z" fill="white"/>
<path d="M2.01038 7.73017C3.12068 7.73017 4.02076 6.83009 4.02076 5.71979C4.02076 4.60949 3.12068 3.70941 2.01038 3.70941C0.900077 3.70941 0 4.60949 0 5.71979C0 6.83009 0.900077 7.73017 2.01038 7.73017Z" fill="white"/>
<path d="M2.01038 17.0107C3.12068 17.0107 4.02076 16.1106 4.02076 15.0003C4.02076 13.89 3.12068 12.9899 2.01038 12.9899C0.900077 12.9899 0 13.89 0 15.0003C0 16.1106 0.900077 17.0107 2.01038 17.0107Z" fill="white"/>
<path d="M2.01038 26.2911C3.12068 26.2911 4.02076 25.391 4.02076 24.2807C4.02076 23.1704 3.12068 22.2704 2.01038 22.2704C0.900077 22.2704 0 23.1704 0 24.2807C0 25.391 0.900077 26.2911 2.01038 26.2911Z" fill="white"/>
</g>
</svg>
