<svg width="24" height="24" viewBox="0 0 24 24" fill="none" xmlns="http://www.w3.org/2000/svg">
<g clip-path="url(#clip0)">
<path d="M23.2493 11.2504H13.7495C13.3355 11.2504 12.9995 10.9144 12.9995 10.5004C12.9995 10.0864 13.3355 9.75044 13.7495 9.75044H23.2493C23.6633 9.75044 23.9993 10.0864 23.9993 10.5004C23.9993 10.9144 23.6633 11.2504 23.2493 11.2504Z" fill="#DBE0EB"/>
<path d="M19.4994 15.0003C19.3073 15.0003 19.1154 14.9272 18.9693 14.7804C18.6763 14.4872 18.6763 14.0123 18.9693 13.7193L22.1893 10.4995L18.9693 7.27952C18.6763 6.98656 18.6763 6.5116 18.9693 6.21864C19.2625 5.92549 19.7374 5.92549 20.0304 6.21864L23.7803 9.96852C24.0732 10.2615 24.0732 10.7364 23.7803 11.0294L20.0304 14.7793C19.8833 14.9272 19.6915 15.0003 19.4994 15.0003Z" fill="#DBE0EB"/>
<path d="M7.99981 24.0009C7.78577 24.0009 7.58271 23.9708 7.37984 23.9078L1.3619 21.9029C0.543074 21.6169 0 20.8539 0 20.001V2.0016C0 0.898608 0.897006 0.00160217 2 0.00160217C2.21386 0.00160217 2.41692 0.0316306 2.61997 0.0946169L8.63773 2.09956C9.45674 2.38556 9.99963 3.14854 9.99963 4.00142V22.0009C9.99963 23.1038 9.10281 24.0009 7.99981 24.0009ZM2 1.50156C1.72498 1.50156 1.49995 1.72658 1.49995 2.0016V20.001C1.49995 20.214 1.64295 20.4119 1.84693 20.483L7.83667 22.4789C7.8797 22.4928 7.93573 22.5009 7.99981 22.5009C8.27483 22.5009 8.49967 22.2759 8.49967 22.0009V4.00142C8.49967 3.78847 8.35667 3.59054 8.1527 3.5195L2.16296 1.52353C2.11993 1.50961 2.0639 1.50156 2 1.50156Z" fill="#DBE0EB"/>
<path d="M15.2495 8.00054C14.8355 8.00054 14.4995 7.66456 14.4995 7.25057V2.75071C14.4995 2.0617 13.9387 1.50069 13.2497 1.50069H2.00001C1.58602 1.50069 1.25003 1.1647 1.25003 0.750709C1.25003 0.33672 1.58602 0.000732422 2.00001 0.000732422H13.2497C14.7666 0.000732422 15.9994 1.23373 15.9994 2.75071V7.25057C15.9994 7.66456 15.6635 8.00054 15.2495 8.00054Z" fill="#DBE0EB"/>
<path d="M13.2496 21.0001H9.24964C8.83565 21.0001 8.49966 20.6641 8.49966 20.2501C8.49966 19.8361 8.83565 19.5001 9.24964 19.5001H13.2496C13.9386 19.5001 14.4995 18.9391 14.4995 18.2501V13.7503C14.4995 13.3363 14.8355 13.0003 15.2495 13.0003C15.6634 13.0003 15.9994 13.3363 15.9994 13.7503V18.2501C15.9994 19.7671 14.7666 21.0001 13.2496 21.0001Z" fill="#DBE0EB"/>
</g>
<defs>
<clipPath id="clip0">
<rect width="24" height="24" fill="white"/>
</clipPath>
</defs>
</svg>
