<svg width="17" height="17" viewBox="0 0 17 17" fill="none" xmlns="http://www.w3.org/2000/svg">
<g clip-path="url(#clip0)">
<path d="M15.5329 14.3388L14.3167 12.3116C13.755 11.3759 13.4582 10.3041 13.4582 9.2133V7.4375C13.4582 5.19563 11.9622 3.29943 9.91649 2.68813V1.41668C9.91649 0.635375 9.28112 0 8.49981 0C7.71851 0 7.08313 0.635375 7.08313 1.41668V2.68813C5.03749 3.29943 3.54149 5.19563 3.54149 7.4375V9.2133C3.54149 10.3041 3.24469 11.3751 2.68369 12.3109L1.46749 14.3381C1.40161 14.4479 1.40019 14.5839 1.46324 14.6951C1.52629 14.8063 1.64317 14.875 1.77067 14.875H15.229C15.3565 14.875 15.4741 14.8063 15.5371 14.6958C15.6002 14.5853 15.598 14.4479 15.5329 14.3388Z" fill="#B5BED1"/>
<path d="M6.26929 15.5833C6.66879 16.4177 7.51454 17 8.4998 17C9.48507 17 10.3309 16.4177 10.7304 15.5833H6.26929Z" fill="#B5BED1"/>
</g>
<defs>
<clipPath id="clip0">
<rect width="17" height="17" fill="white"/>
</clipPath>
</defs>
</svg>
