<svg width="21" height="20" viewBox="0 0 21 20" fill="none" xmlns="http://www.w3.org/2000/svg">
<g clip-path="url(#clip0)">
<path d="M16.3282 20H5.07825C4.04491 20 3.20325 19.1592 3.20325 18.125V9.375C3.20325 8.34083 4.04491 7.5 5.07825 7.5H16.3282C17.3616 7.5 18.2032 8.34083 18.2032 9.375V18.125C18.2032 19.1592 17.3616 20 16.3282 20ZM5.07825 8.75C4.73408 8.75 4.45325 9.03 4.45325 9.375V18.125C4.45325 18.47 4.73408 18.75 5.07825 18.75H16.3282C16.6724 18.75 16.9532 18.47 16.9532 18.125V9.375C16.9532 9.03 16.6724 8.75 16.3282 8.75H5.07825Z" fill="#DBE0EB"/>
<path d="M15.0782 8.74999C14.7332 8.74999 14.4532 8.46999 14.4532 8.12499V4.99999C14.4532 2.93249 12.7707 1.24999 10.7032 1.24999C8.63575 1.24999 6.95325 2.93249 6.95325 4.99999V8.12499C6.95325 8.46999 6.67325 8.74999 6.32825 8.74999C5.98325 8.74999 5.70325 8.46999 5.70325 8.12499V4.99999C5.70325 2.24249 7.94575 -7.62939e-06 10.7032 -7.62939e-06C13.4607 -7.62939e-06 15.7032 2.24249 15.7032 4.99999V8.12499C15.7032 8.46999 15.4232 8.74999 15.0782 8.74999Z" fill="#DBE0EB"/>
<path d="M10.7032 14.1667C9.784 14.1667 9.0365 13.4192 9.0365 12.5C9.0365 11.5808 9.784 10.8333 10.7032 10.8333C11.6223 10.8333 12.3698 11.5808 12.3698 12.5C12.3698 13.4192 11.6223 14.1667 10.7032 14.1667ZM10.7032 12.0833C10.474 12.0833 10.2865 12.27 10.2865 12.5C10.2865 12.73 10.474 12.9167 10.7032 12.9167C10.9323 12.9167 11.1198 12.73 11.1198 12.5C11.1198 12.27 10.9323 12.0833 10.7032 12.0833Z" fill="#DBE0EB"/>
<path d="M10.7032 16.6667C10.3582 16.6667 10.0782 16.3867 10.0782 16.0417V13.75C10.0782 13.405 10.3582 13.125 10.7032 13.125C11.0482 13.125 11.3282 13.405 11.3282 13.75V16.0417C11.3282 16.3867 11.0482 16.6667 10.7032 16.6667Z" fill="#DBE0EB"/>
</g>
<defs>
<clipPath id="clip0">
<rect width="20" height="20" fill="white" transform="translate(0.703247)"/>
</clipPath>
</defs>
</svg>
