<svg width="30" height="30" viewBox="0 0 30 30" fill="none" xmlns="http://www.w3.org/2000/svg">
<path d="M12.6562 6.28078V6.20719C12.6562 5.40422 12.3436 4.64953 11.7755 4.08141C11.2598 3.56531 10.5736 3.28125 9.84375 3.28125C9.14062 3.28125 8.47781 3.54516 7.96875 4.02609C7.45969 3.54516 6.79688 3.28125 6.09375 3.28125C5.36391 3.28125 4.67766 3.56531 4.16203 4.08141C3.59391 4.64953 3.28125 5.40422 3.28125 6.20719V6.28078C3.28125 7.18922 3.67078 8.05641 4.34953 8.65969L7.96875 11.8772L11.5875 8.66016C12.2667 8.05687 12.6562 7.18969 12.6562 6.28078ZM7.96875 10.6228L4.9725 7.95937C4.49344 7.53375 4.21875 6.92203 4.21875 6.28078V6.20719C4.21875 5.65453 4.43391 5.13516 4.82484 4.74422C5.16375 4.40531 5.61469 4.21875 6.09375 4.21875C6.57281 4.21875 7.02375 4.40531 7.36266 4.74422L7.96875 5.35031L8.57484 4.74422C9.25266 4.06687 10.4348 4.06687 11.1127 4.74422C11.5036 5.13516 11.7188 5.65453 11.7188 6.20719V6.28078C11.7188 6.92156 11.4441 7.53375 10.965 7.95937L7.96875 10.6228Z" fill="#487BF0"/>
<path d="M28.125 4.21875H15.4688V1.875C15.4688 1.09969 14.8378 0.46875 14.0625 0.46875H1.875C1.09969 0.46875 0.46875 1.09969 0.46875 1.875V12.1875C0.46875 12.9628 1.09969 13.5938 1.875 13.5938H5.87437L6.65578 14.5312H2.8125C2.03719 14.5312 1.40625 15.1622 1.40625 15.9375V25.3125C1.40625 26.0878 2.03719 26.7188 2.8125 26.7188H7.74937L9.76125 29.1328C9.97219 29.3859 10.282 29.5312 10.6116 29.5312C11.2219 29.5312 11.7188 29.0344 11.7188 28.4241V26.7188H16.875C17.6503 26.7188 18.2812 26.0878 18.2812 25.3125V17.3438H19.2188V19.0491C19.2188 19.6594 19.7156 20.1562 20.3259 20.1562C20.6555 20.1562 20.9653 20.0109 21.1762 19.7578L23.1881 17.3438H28.125C28.9003 17.3438 29.5312 16.7128 29.5312 15.9375V5.625C29.5312 4.84969 28.9003 4.21875 28.125 4.21875ZM1.875 12.6562C1.61672 12.6562 1.40625 12.4462 1.40625 12.1875V1.875C1.40625 1.61625 1.61672 1.40625 1.875 1.40625H14.0625C14.3208 1.40625 14.5312 1.61625 14.5312 1.875V12.1875C14.5312 12.4462 14.3208 12.6562 14.0625 12.6562H8.90625V15.2991C8.90625 15.4439 8.69906 15.5189 8.60625 15.4073L6.31313 12.6562H1.875ZM12.6562 14.5312H9.84375V13.5938H12.6562V14.5312ZM17.3438 25.3125C17.3438 25.5713 17.1333 25.7812 16.875 25.7812H10.7812V28.4241C10.7812 28.5689 10.5741 28.6439 10.4813 28.5323L8.18813 25.7812H2.8125C2.55422 25.7812 2.34375 25.5713 2.34375 25.3125V15.9375C2.34375 15.6788 2.55422 15.4688 2.8125 15.4688H7.43672L7.88625 16.0078C8.09719 16.2609 8.40703 16.4062 8.73656 16.4062C9.28875 16.4062 9.74391 15.9984 9.82641 15.4688H12.6562V15.9375C12.6562 16.7128 13.2872 17.3438 14.0625 17.3438H17.3438V25.3125ZM28.5938 15.9375C28.5938 16.1962 28.3833 16.4062 28.125 16.4062H22.7494L20.4562 19.1573C20.3634 19.268 20.1562 19.1934 20.1562 19.0491V16.4062H14.0625C13.8042 16.4062 13.5938 16.1962 13.5938 15.9375V13.5938H14.0625C14.8378 13.5938 15.4688 12.9628 15.4688 12.1875V5.15625H28.125C28.3833 5.15625 28.5938 5.36625 28.5938 5.625V15.9375Z" fill="#487BF0"/>
<path d="M11.7188 20.1562C11.7188 20.4342 11.7834 20.6958 11.8922 20.933C11.6902 20.7539 11.4652 20.6011 11.2219 20.4797C11.5275 20.1459 11.7188 19.7058 11.7188 19.2187C11.7188 18.1847 10.8778 17.3438 9.84375 17.3438C8.80969 17.3438 7.96875 18.1847 7.96875 19.2187C7.96875 19.7058 8.16 20.1459 8.46562 20.4797C8.22234 20.6011 7.99734 20.7539 7.79531 20.933C7.90406 20.6958 7.96875 20.4342 7.96875 20.1562C7.96875 19.1222 7.12781 18.2812 6.09375 18.2812C5.05969 18.2812 4.21875 19.1222 4.21875 20.1562C4.21875 20.6559 4.41797 21.1073 4.73766 21.4439C3.87047 21.9234 3.28125 22.8469 3.28125 23.9062V24.8437H4.21875V23.9062C4.21875 22.8722 5.05969 22.0312 6.09375 22.0312C6.38906 22.0312 6.67219 22.1016 6.93 22.2305C6.85594 22.4447 6.80156 22.6687 6.77531 22.9027L6.56531 24.7917L7.49672 24.8953L7.70672 23.0062C7.82812 21.9159 8.74687 21.0937 9.84375 21.0937C10.9406 21.0937 11.8594 21.9159 11.9808 23.0062L12.1908 24.8953L13.1222 24.7917L12.9122 22.9027C12.8864 22.6687 12.8316 22.4447 12.7575 22.2305C13.0153 22.1016 13.2984 22.0312 13.5938 22.0312C14.6278 22.0312 15.4688 22.8722 15.4688 23.9062V24.8437H16.4062V23.9062C16.4062 22.8469 15.817 21.9234 14.9498 21.4439C15.2695 21.1073 15.4688 20.6559 15.4688 20.1562C15.4688 19.1222 14.6278 18.2812 13.5938 18.2812C12.5597 18.2812 11.7188 19.1222 11.7188 20.1562ZM5.15625 20.1562C5.15625 19.6392 5.57672 19.2187 6.09375 19.2187C6.61078 19.2187 7.03125 19.6392 7.03125 20.1562C7.03125 20.6733 6.61078 21.0937 6.09375 21.0937C5.57672 21.0937 5.15625 20.6733 5.15625 20.1562ZM8.90625 19.2187C8.90625 18.7017 9.32672 18.2812 9.84375 18.2812C10.3608 18.2812 10.7812 18.7017 10.7812 19.2187C10.7812 19.7358 10.3608 20.1562 9.84375 20.1562C9.32672 20.1562 8.90625 19.7358 8.90625 19.2187ZM14.5312 20.1562C14.5312 20.6733 14.1108 21.0937 13.5938 21.0937C13.0767 21.0937 12.6562 20.6733 12.6562 20.1562C12.6562 19.6392 13.0767 19.2187 13.5938 19.2187C14.1108 19.2187 14.5312 19.6392 14.5312 20.1562Z" fill="#487BF0"/>
<path d="M24.8438 8.90625H23.9906L24.1036 8.22937C24.1922 7.69641 24.0431 7.15453 23.6939 6.7425C23.3447 6.33 22.8347 6.09375 22.2947 6.09375C21.6483 6.09375 21.0872 6.53203 20.9302 7.15875C20.7605 7.83844 20.4089 8.45906 19.9134 8.955L19.7752 9.09328C19.6191 8.9775 19.4278 8.90625 19.2188 8.90625H17.3438C16.8267 8.90625 16.4062 9.32672 16.4062 9.84375V14.5312C16.4062 15.0483 16.8267 15.4688 17.3438 15.4688H19.2188C19.628 15.4688 19.9725 15.2039 20.1005 14.8378C20.932 15.2503 21.8456 15.4688 22.7836 15.4688H24.8438C25.8778 15.4688 26.7188 14.6278 26.7188 13.5938V10.7812C26.7188 9.74719 25.8778 8.90625 24.8438 8.90625ZM17.3438 14.5312V9.84375H19.2188L19.2192 14.5312H17.3438ZM25.7812 13.5938C25.7812 14.1108 25.3608 14.5312 24.8438 14.5312H22.7836C21.8531 14.5312 20.9508 14.2777 20.1562 13.8009V10.0378L20.5763 9.61781C21.1917 9.00234 21.6291 8.23031 21.84 7.38609C21.892 7.1775 22.0791 7.03125 22.2947 7.03125C22.5586 7.03125 22.808 7.14656 22.9786 7.34859C23.1492 7.55016 23.2223 7.815 23.1788 8.07563L22.8844 9.84375H24.8438C25.3608 9.84375 25.7812 10.2642 25.7812 10.7812V13.5938Z" fill="#487BF0"/>
</svg>
