<svg width="12" height="12" viewBox="0 0 12 12" fill="none" xmlns="http://www.w3.org/2000/svg">
<path d="M8.99623 4.02746C8.81152 3.83269 8.50358 3.82411 8.30851 4.00929L5.20278 6.95466L3.72143 5.43373C3.53382 5.24124 3.2262 5.23702 3.03354 5.42466C2.84105 5.61211 2.837 5.92006 3.02445 6.11255L4.84067 7.97726C4.93585 8.07504 5.06234 8.12433 5.18916 8.12433C5.30949 8.12433 5.42982 8.07989 5.52404 7.99088L8.97809 4.71521C9.173 4.53033 9.18125 4.22238 8.99623 4.02746Z" fill="white"/>
<path d="M6 0C2.69156 0 0 2.69156 0 6C0 9.30844 2.69156 12 6 12C9.30844 12 12 9.30844 12 6C12 2.69156 9.30844 0 6 0ZM6 11.027C3.22816 11.027 0.972961 8.77202 0.972961 6C0.972961 3.22816 3.22814 0.972961 6 0.972961C8.772 0.972961 11.027 3.22814 11.027 6C11.027 8.772 8.772 11.027 6 11.027Z" fill="white"/>
</svg>
