<svg width="26" height="26" viewBox="0 0 26 26" fill="none" xmlns="http://www.w3.org/2000/svg">
<g clip-path="url(#clip0)">
<path d="M22.3767 14.9988C23.2392 15.8409 24.1494 16.6331 24.923 17.56C25.2647 17.972 25.5882 18.397 25.8357 18.8751C26.1864 19.5546 25.8687 20.3024 25.2594 20.343L21.4716 20.3413C20.4947 20.4223 19.7154 20.0291 19.0601 19.3611C18.5357 18.8269 18.05 18.2584 17.5457 17.7062C17.339 17.4806 17.1226 17.2682 16.8642 17.1003C16.3471 16.7647 15.8982 16.8674 15.6027 17.4067C15.3018 17.9553 15.2335 18.5626 15.204 19.1739C15.1634 20.0658 14.8938 20.3003 13.9979 20.3412C12.0831 20.4314 10.266 20.1418 8.57787 19.1759C7.08957 18.3244 5.93551 17.1222 4.93096 15.7614C2.97522 13.1114 1.47743 10.1995 0.131318 7.20608C-0.171693 6.53166 0.0499161 6.16964 0.794065 6.15679C2.02973 6.13277 3.26523 6.1345 4.50237 6.15506C5.00459 6.16243 5.33706 6.45046 5.53099 6.92491C6.19953 8.56875 7.01756 10.1327 8.04436 11.5824C8.31782 11.9683 8.59666 12.3543 8.99366 12.6259C9.43292 12.9267 9.76737 12.827 9.974 12.3377C10.1051 12.0274 10.1625 11.6932 10.1921 11.361C10.29 10.2177 10.3029 9.07641 10.1312 7.93718C10.0258 7.22619 9.62533 6.76591 8.91587 6.63139C8.55385 6.56279 8.60773 6.42806 8.78302 6.22143C9.08746 5.86505 9.37381 5.64319 9.94464 5.64319H14.2254C14.8993 5.77618 15.049 6.07894 15.1412 6.75702L15.1449 11.512C15.1375 11.7745 15.276 12.5536 15.7488 12.7273C16.1273 12.851 16.3767 12.5482 16.6038 12.3083C17.6287 11.2205 18.3602 9.93492 19.0137 8.60374C19.3037 8.01838 19.5531 7.41053 19.7948 6.80313C19.9738 6.35245 20.2548 6.13069 20.7625 6.14049L24.8825 6.14415C25.0046 6.14415 25.1282 6.14592 25.2466 6.16618C25.9408 6.28451 26.1311 6.58315 25.9166 7.26108C25.5788 8.32469 24.9214 9.21108 24.2787 10.1015C23.5916 11.0522 22.8567 11.9704 22.1754 12.9267C21.5494 13.8001 21.5991 14.2403 22.3767 14.9988Z" fill="#436EAB"/>
</g>
<defs>
<clipPath id="clip0">
<rect width="26" height="26" fill="white"/>
</clipPath>
</defs>
</svg>
